# xmcd
#
# Track frame offsets: 
#        150
#        18612
#        33661
#        51079
#        62491
#        79840
#        91773
#        110194
#        126779
#        145052
#        154557
#        176272
#
# Disc length: 2851 seconds
#
# Revision: 0
# Processed by: cddbd v1.5.1PL0 Copyright (c) Steve Scherf et al.
# Submitted via: ExactAudioCopy v0.95b3
#
DISCID=970b210c
DTITLE=Dan Walker - Boise, Bend and Back Home Again
DYEAR=2004
DGENRE=Country
TTITLE0=Be Here Today
TTITLE1=Boise
TTITLE2=My Friend
TTITLE3=Ghetto
TTITLE4=False Alibi
TTITLE5=Goin' Out Tonight
TTITLE6=One More Way
TTITLE7=Rock 'n' Roll
TTITLE8=Son
TTITLE9=Bend Music
TTITLE10=On Side
TTITLE11=Low Tide*
EXTD=
EXTT0=
EXTT1=
EXTT2=
EXTT3=
EXTT4=
EXTT5=
EXTT6=
EXTT7=
EXTT8=
EXTT9=
EXTT10=
EXTT11=
PLAYORDER=
